<?xml version="1.0" encoding="UTF-8"?>
<svg xmlns="http://www.w3.org/2000/svg" xmlns:xlink="http://www.w3.org/1999/xlink" width="3000" height="3000" viewBox="0 0 3000 3000">
<defs>
<clipPath id="clip-0">

</clipPath>
<clipPath id="clip-1">
<path clip-rule="nonzero" d="M 1571.089844 838.210938 C 1556.660156 861.550781 1542.519531 884.789062 1528.628906 907.609375 C 1441.261719 1052.03125 1364.839844 1182.601562 1230.878906 1300.429688 C 1018.679688 1487.109375 729.960938 1444.21875 861.351562 1223.539062 C 892.640625 1170.578125 814.285156 1202.011719 776.734375 1247.570312 C 617.09375 1441.230469 796.21875 1615.898438 1011.601562 1628.148438 C 1434 1652.210938 1773.679688 1425.320312 1958.621094 1218.289062 C 2100.589844 1059.351562 2037.160156 887.949219 1978.050781 957.488281 C 1965.339844 972.421875 1947.210938 986.351562 1926.308594 978.269531 C 1895.148438 966.21875 1894.070312 915.058594 1892.96875 886.730469 C 1892.730469 880.441406 1893.261719 859.160156 1890.449219 854.019531 C 1887.921875 849.410156 1869.058594 848.078125 1865 847.910156 C 1843.269531 847 1814.160156 843.371094 1805.808594 818.800781 C 1800.871094 804.25 1805.71875 789.128906 1814.46875 776.558594 C 1871.570312 694.558594 1677.078125 666.828125 1571.089844 838.210938 Z M 1571.089844 838.210938 "/>
</clipPath>
<clipPath id="clip-2">
<path clip-rule="nonzero" d="M 1571.089844 838.210938 C 1556.660156 861.550781 1542.519531 884.789062 1528.628906 907.609375 C 1441.261719 1052.03125 1364.839844 1182.601562 1230.878906 1300.429688 C 1018.679688 1487.109375 729.960938 1444.21875 861.351562 1223.539062 C 892.640625 1170.578125 814.285156 1202.011719 776.734375 1247.570312 C 617.09375 1441.230469 796.21875 1615.898438 1011.601562 1628.148438 C 1434 1652.210938 1773.679688 1425.320312 1958.621094 1218.289062 C 2100.589844 1059.351562 2037.160156 887.949219 1978.050781 957.488281 C 1965.339844 972.421875 1947.210938 986.351562 1926.308594 978.269531 C 1895.148438 966.21875 1894.070312 915.058594 1892.96875 886.730469 C 1892.730469 880.441406 1893.261719 859.160156 1890.449219 854.019531 C 1887.921875 849.410156 1869.058594 848.078125 1865 847.910156 C 1843.269531 847 1814.160156 843.371094 1805.808594 818.800781 C 1800.871094 804.25 1805.71875 789.128906 1814.46875 776.558594 C 1871.570312 694.558594 1677.078125 666.828125 1571.089844 838.210938 "/>
</clipPath>
<linearGradient id="linear-pattern-0" gradientUnits="userSpaceOnUse" x1="-0.401492" y1="0" x2="1.070208" y2="0" gradientTransform="matrix(-1054.47, 585.956, 585.956, 1054.47, 1758.8, 1048.88)">
<stop offset="0" stop-color="rgb(88.626099%, 8.627319%, 7.843018%)" stop-opacity="1"/>
<stop offset="0.25" stop-color="rgb(88.626099%, 8.627319%, 7.843018%)" stop-opacity="1"/>
<stop offset="0.28125" stop-color="rgb(88.537598%, 8.609009%, 7.85675%)" stop-opacity="1"/>
<stop offset="0.296875" stop-color="rgb(88.288879%, 8.560181%, 7.897949%)" stop-opacity="1"/>
<stop offset="0.3125" stop-color="rgb(87.963867%, 8.49762%, 7.952881%)" stop-opacity="1"/>
<stop offset="0.328125" stop-color="rgb(87.638855%, 8.433533%, 8.006287%)" stop-opacity="1"/>
<stop offset="0.34375" stop-color="rgb(87.313843%, 8.370972%, 8.061218%)" stop-opacity="1"/>
<stop offset="0.359375" stop-color="rgb(86.990356%, 8.308411%, 8.114624%)" stop-opacity="1"/>
<stop offset="0.375" stop-color="rgb(86.665344%, 8.244324%, 8.16803%)" stop-opacity="1"/>
<stop offset="0.390625" stop-color="rgb(86.340332%, 8.181763%, 8.222961%)" stop-opacity="1"/>
<stop offset="0.40625" stop-color="rgb(86.01532%, 8.119202%, 8.276367%)" stop-opacity="1"/>
<stop offset="0.421875" stop-color="rgb(85.691833%, 8.055115%, 8.331299%)" stop-opacity="1"/>
<stop offset="0.4375" stop-color="rgb(85.366821%, 7.992554%, 8.384705%)" stop-opacity="1"/>
<stop offset="0.453125" stop-color="rgb(85.041809%, 7.929993%, 8.439636%)" stop-opacity="1"/>
<stop offset="0.46875" stop-color="rgb(84.716797%, 7.865906%, 8.493042%)" stop-opacity="1"/>
<stop offset="0.484375" stop-color="rgb(84.393311%, 7.803345%, 8.547974%)" stop-opacity="1"/>
<stop offset="0.5" stop-color="rgb(84.068298%, 7.739258%, 8.601379%)" stop-opacity="1"/>
<stop offset="0.515625" stop-color="rgb(83.743286%, 7.676697%, 8.656311%)" stop-opacity="1"/>
<stop offset="0.53125" stop-color="rgb(83.418274%, 7.614136%, 8.709717%)" stop-opacity="1"/>
<stop offset="0.546875" stop-color="rgb(83.094788%, 7.550049%, 8.764648%)" stop-opacity="1"/>
<stop offset="0.5625" stop-color="rgb(82.769775%, 7.487488%, 8.818054%)" stop-opacity="1"/>
<stop offset="0.578125" stop-color="rgb(82.444763%, 7.424927%, 8.87146%)" stop-opacity="1"/>
<stop offset="0.59375" stop-color="rgb(82.119751%, 7.36084%, 8.926392%)" stop-opacity="1"/>
<stop offset="0.609375" stop-color="rgb(81.796265%, 7.298279%, 8.979797%)" stop-opacity="1"/>
<stop offset="0.625" stop-color="rgb(81.471252%, 7.234192%, 9.034729%)" stop-opacity="1"/>
<stop offset="0.640625" stop-color="rgb(81.14624%, 7.171631%, 9.088135%)" stop-opacity="1"/>
<stop offset="0.65625" stop-color="rgb(80.821228%, 7.10907%, 9.143066%)" stop-opacity="1"/>
<stop offset="0.671875" stop-color="rgb(80.497742%, 7.044983%, 9.196472%)" stop-opacity="1"/>
<stop offset="0.6875" stop-color="rgb(80.172729%, 6.982422%, 9.251404%)" stop-opacity="1"/>
<stop offset="0.703125" stop-color="rgb(79.847717%, 6.919861%, 9.30481%)" stop-opacity="1"/>
<stop offset="0.71875" stop-color="rgb(79.522705%, 6.855774%, 9.359741%)" stop-opacity="1"/>
<stop offset="0.734375" stop-color="rgb(79.199219%, 6.793213%, 9.413147%)" stop-opacity="1"/>
<stop offset="0.75" stop-color="rgb(78.874207%, 6.730652%, 9.468079%)" stop-opacity="1"/>
<stop offset="0.765625" stop-color="rgb(78.549194%, 6.666565%, 9.521484%)" stop-opacity="1"/>
<stop offset="0.78125" stop-color="rgb(78.224182%, 6.604004%, 9.57489%)" stop-opacity="1"/>
<stop offset="0.796875" stop-color="rgb(77.900696%, 6.539917%, 9.629822%)" stop-opacity="1"/>
<stop offset="0.8125" stop-color="rgb(77.575684%, 6.477356%, 9.683228%)" stop-opacity="1"/>
<stop offset="0.828125" stop-color="rgb(77.250671%, 6.414795%, 9.738159%)" stop-opacity="1"/>
<stop offset="0.84375" stop-color="rgb(76.925659%, 6.350708%, 9.791565%)" stop-opacity="1"/>
<stop offset="0.859375" stop-color="rgb(76.600647%, 6.288147%, 9.846497%)" stop-opacity="1"/>
<stop offset="0.875" stop-color="rgb(76.277161%, 6.225586%, 9.899902%)" stop-opacity="1"/>
<stop offset="0.890625" stop-color="rgb(75.952148%, 6.161499%, 9.954834%)" stop-opacity="1"/>
<stop offset="0.90625" stop-color="rgb(75.627136%, 6.098938%, 10.00824%)" stop-opacity="1"/>
<stop offset="0.921875" stop-color="rgb(75.302124%, 6.034851%, 10.063171%)" stop-opacity="1"/>
<stop offset="0.9375" stop-color="rgb(74.978638%, 5.97229%, 10.116577%)" stop-opacity="1"/>
<stop offset="1" stop-color="rgb(74.662781%, 5.911255%, 10.169983%)" stop-opacity="1"/>
</linearGradient>
<clipPath id="clip-3">
<path clip-rule="nonzero" d="M 1028 738 L 1736 738 L 1736 1474 L 1028 1474 Z M 1028 738 "/>
</clipPath>
<clipPath id="clip-4">
<path clip-rule="evenodd" d="M 1581.191406 864.910156 C 1420.601562 1122.570312 1320.851562 1302.078125 1028.378906 1473.730469 C 1353.089844 1358.390625 1509.441406 1122.949219 1613.949219 940.640625 C 1664.730469 852.058594 1688.550781 780.980469 1735.988281 738.859375 C 1664.980469 753.371094 1621.941406 799.53125 1581.191406 864.910156 "/>
</clipPath>
<linearGradient id="linear-pattern-1" gradientUnits="userSpaceOnUse" x1="-0.341421" y1="0" x2="0.475704" y2="0" gradientTransform="matrix(33.9817, -929.745, -929.745, -33.9817, 1379.91, 1168.72)">
<stop offset="0" stop-color="rgb(74.508667%, 5.882263%, 10.195923%)" stop-opacity="1"/>
<stop offset="0.25" stop-color="rgb(74.508667%, 5.882263%, 10.195923%)" stop-opacity="1"/>
<stop offset="0.375" stop-color="rgb(74.508667%, 5.882263%, 10.195923%)" stop-opacity="1"/>
<stop offset="0.4375" stop-color="rgb(74.621582%, 5.903625%, 10.176086%)" stop-opacity="1"/>
<stop offset="0.46875" stop-color="rgb(74.916077%, 5.960083%, 10.127258%)" stop-opacity="1"/>
<stop offset="0.5" stop-color="rgb(75.276184%, 6.030273%, 10.066223%)" stop-opacity="1"/>
<stop offset="0.53125" stop-color="rgb(75.636292%, 6.100464%, 10.006714%)" stop-opacity="1"/>
<stop offset="0.5625" stop-color="rgb(75.997925%, 6.170654%, 9.947205%)" stop-opacity="1"/>
<stop offset="0.59375" stop-color="rgb(76.358032%, 6.240845%, 9.886169%)" stop-opacity="1"/>
<stop offset="0.625" stop-color="rgb(76.71814%, 6.311035%, 9.82666%)" stop-opacity="1"/>
<stop offset="0.65625" stop-color="rgb(77.078247%, 6.381226%, 9.767151%)" stop-opacity="1"/>
<stop offset="0.6875" stop-color="rgb(77.43988%, 6.451416%, 9.706116%)" stop-opacity="1"/>
<stop offset="0.71875" stop-color="rgb(77.799988%, 6.521606%, 9.646606%)" stop-opacity="1"/>
<stop offset="0.75" stop-color="rgb(78.160095%, 6.591797%, 9.585571%)" stop-opacity="1"/>
<stop offset="0.78125" stop-color="rgb(78.520203%, 6.661987%, 9.526062%)" stop-opacity="1"/>
<stop offset="0.8125" stop-color="rgb(78.881836%, 6.732178%, 9.466553%)" stop-opacity="1"/>
<stop offset="0.84375" stop-color="rgb(79.241943%, 6.802368%, 9.405518%)" stop-opacity="1"/>
<stop offset="0.875" stop-color="rgb(79.602051%, 6.872559%, 9.346008%)" stop-opacity="1"/>
<stop offset="0.90625" stop-color="rgb(79.963684%, 6.942749%, 9.286499%)" stop-opacity="1"/>
<stop offset="0.9375" stop-color="rgb(80.323792%, 7.011414%, 9.225464%)" stop-opacity="1"/>
<stop offset="0.96875" stop-color="rgb(80.683899%, 7.081604%, 9.165955%)" stop-opacity="1"/>
<stop offset="1" stop-color="rgb(81.044006%, 7.151794%, 9.104919%)" stop-opacity="1"/>
</linearGradient>
<clipPath id="clip-5">
<path clip-rule="nonzero" d="M 1701 636 L 2274 636 L 2274 1093 L 1701 1093 Z M 1701 636 "/>
</clipPath>
<clipPath id="clip-6">
<path clip-rule="evenodd" d="M 2133.03125 639.070312 C 2087.890625 647.359375 2045.289062 675.230469 2008.488281 707.988281 C 1968.050781 743.96875 1957.519531 726.511719 1913.660156 703.539062 C 1846.578125 668.410156 1764.53125 654.578125 1702.238281 709.71875 C 1695.808594 715.410156 1785.789062 692.378906 1826.78125 711.238281 C 1869.640625 730.960938 1856.339844 755.300781 1837.269531 781.410156 C 1819.75 805.371094 1818.171875 821.539062 1865.519531 823.511719 C 1922.019531 825.871094 1915.871094 853.410156 1917.148438 886.261719 C 1918.421875 919.109375 1921.808594 985.75 1959.558594 941.371094 C 2062.890625 819.859375 2080.261719 1025.691406 2060.070312 1092.078125 C 2168.78125 898.75 1966.300781 819.140625 2040.921875 744.578125 C 2069.421875 716.109375 2111.488281 677.480469 2155.429688 672.671875 C 2212.089844 666.460938 2265.121094 721.160156 2218.328125 771.011719 C 2200.710938 789.78125 2224.699219 821.648438 2250.96875 793.609375 C 2313.589844 726.75 2232.921875 620.710938 2133.03125 639.070312 "/>
</clipPath>
<linearGradient id="linear-pattern-2" gradientUnits="userSpaceOnUse" x1="-1.084174" y1="0" x2="1.716865" y2="0" gradientTransform="matrix(225.63, -7.10599, -7.10599, -225.63, 1933.68, 869.98)">
<stop offset="0" stop-color="rgb(21.176147%, 60.391235%, 13.33313%)" stop-opacity="1"/>
<stop offset="0.25" stop-color="rgb(21.176147%, 60.391235%, 13.33313%)" stop-opacity="1"/>
<stop offset="0.375" stop-color="rgb(21.176147%, 60.391235%, 13.33313%)" stop-opacity="1"/>
<stop offset="0.390625" stop-color="rgb(21.159363%, 60.3302%, 13.328552%)" stop-opacity="1"/>
<stop offset="0.398438" stop-color="rgb(21.109009%, 60.136414%, 13.314819%)" stop-opacity="1"/>
<stop offset="0.40625" stop-color="rgb(21.040344%, 59.870911%, 13.298035%)" stop-opacity="1"/>
<stop offset="0.414063" stop-color="rgb(20.97168%, 59.605408%, 13.28125%)" stop-opacity="1"/>
<stop offset="0.421875" stop-color="rgb(20.903015%, 59.338379%, 13.264465%)" stop-opacity="1"/>
<stop offset="0.429688" stop-color="rgb(20.834351%, 59.072876%, 13.246155%)" stop-opacity="1"/>
<stop offset="0.4375" stop-color="rgb(20.765686%, 58.807373%, 13.22937%)" stop-opacity="1"/>
<stop offset="0.445312" stop-color="rgb(20.697021%, 58.540344%, 13.212585%)" stop-opacity="1"/>
<stop offset="0.453125" stop-color="rgb(20.628357%, 58.274841%, 13.195801%)" stop-opacity="1"/>
<stop offset="0.460938" stop-color="rgb(20.559692%, 58.007812%, 13.17749%)" stop-opacity="1"/>
<stop offset="0.46875" stop-color="rgb(20.491028%, 57.74231%, 13.160706%)" stop-opacity="1"/>
<stop offset="0.476562" stop-color="rgb(20.422363%, 57.476807%, 13.143921%)" stop-opacity="1"/>
<stop offset="0.484375" stop-color="rgb(20.353699%, 57.209778%, 13.127136%)" stop-opacity="1"/>
<stop offset="0.492188" stop-color="rgb(20.285034%, 56.944275%, 13.110352%)" stop-opacity="1"/>
<stop offset="0.5" stop-color="rgb(20.21637%, 56.678772%, 13.092041%)" stop-opacity="1"/>
<stop offset="0.507812" stop-color="rgb(20.147705%, 56.411743%, 13.075256%)" stop-opacity="1"/>
<stop offset="0.515625" stop-color="rgb(20.079041%, 56.14624%, 13.058472%)" stop-opacity="1"/>
<stop offset="0.523438" stop-color="rgb(20.010376%, 55.880737%, 13.041687%)" stop-opacity="1"/>
<stop offset="0.53125" stop-color="rgb(19.941711%, 55.613708%, 13.023376%)" stop-opacity="1"/>
<stop offset="0.539062" stop-color="rgb(19.873047%, 55.348206%, 13.006592%)" stop-opacity="1"/>
<stop offset="0.546875" stop-color="rgb(19.804382%, 55.082703%, 12.989807%)" stop-opacity="1"/>
<stop offset="0.554688" stop-color="rgb(19.735718%, 54.815674%, 12.973022%)" stop-opacity="1"/>
<stop offset="0.5625" stop-color="rgb(19.667053%, 54.550171%, 12.954712%)" stop-opacity="1"/>
<stop offset="0.570312" stop-color="rgb(19.598389%, 54.284668%, 12.937927%)" stop-opacity="1"/>
<stop offset="0.578125" stop-color="rgb(19.529724%, 54.017639%, 12.921143%)" stop-opacity="1"/>
<stop offset="0.585938" stop-color="rgb(19.46106%, 53.752136%, 12.904358%)" stop-opacity="1"/>
<stop offset="0.59375" stop-color="rgb(19.392395%, 53.486633%, 12.886047%)" stop-opacity="1"/>
<stop offset="0.601563" stop-color="rgb(19.32373%, 53.219604%, 12.869263%)" stop-opacity="1"/>
<stop offset="0.609375" stop-color="rgb(19.255066%, 52.954102%, 12.852478%)" stop-opacity="1"/>
<stop offset="0.617188" stop-color="rgb(19.186401%, 52.688599%, 12.835693%)" stop-opacity="1"/>
<stop offset="0.625" stop-color="rgb(19.117737%, 52.42157%, 12.817383%)" stop-opacity="1"/>
<stop offset="0.632812" stop-color="rgb(19.049072%, 52.156067%, 12.800598%)" stop-opacity="1"/>
<stop offset="0.640625" stop-color="rgb(18.980408%, 51.890564%, 12.783813%)" stop-opacity="1"/>
<stop offset="0.648438" stop-color="rgb(18.911743%, 51.623535%, 12.767029%)" stop-opacity="1"/>
<stop offset="0.65625" stop-color="rgb(18.843079%, 51.358032%, 12.748718%)" stop-opacity="1"/>
<stop offset="0.664062" stop-color="rgb(18.774414%, 51.091003%, 12.731934%)" stop-opacity="1"/>
<stop offset="0.671875" stop-color="rgb(18.70575%, 50.8255%, 12.715149%)" stop-opacity="1"/>
<stop offset="0.679688" stop-color="rgb(18.637085%, 50.559998%, 12.698364%)" stop-opacity="1"/>
<stop offset="0.6875" stop-color="rgb(18.56842%, 50.292969%, 12.680054%)" stop-opacity="1"/>
<stop offset="0.695312" stop-color="rgb(18.499756%, 50.027466%, 12.663269%)" stop-opacity="1"/>
<stop offset="0.703125" stop-color="rgb(18.431091%, 49.761963%, 12.646484%)" stop-opacity="1"/>
<stop offset="0.710938" stop-color="rgb(18.362427%, 49.494934%, 12.6297%)" stop-opacity="1"/>
<stop offset="0.71875" stop-color="rgb(18.295288%, 49.229431%, 12.611389%)" stop-opacity="1"/>
<stop offset="0.726562" stop-color="rgb(18.226624%, 48.963928%, 12.594604%)" stop-opacity="1"/>
<stop offset="0.734375" stop-color="rgb(18.157959%, 48.696899%, 12.57782%)" stop-opacity="1"/>
<stop offset="0.75" stop-color="rgb(18.081665%, 48.399353%, 12.559509%)" stop-opacity="1"/>
<stop offset="1" stop-color="rgb(18.03894%, 48.234558%, 12.548828%)" stop-opacity="1"/>
</linearGradient>
<clipPath id="clip-7">
<path clip-rule="nonzero" d="M 936 927 L 1910 927 L 1910 1606 L 936 1606 Z M 936 927 "/>
</clipPath>
<clipPath id="clip-8">
<path clip-rule="evenodd" d="M 958.902344 1588.5 C 1217.871094 1557.96875 1621.691406 1350.910156 1689.851562 1093.289062 C 1718.121094 986.441406 1722.359375 902.769531 1785.21875 934.511719 C 1950.269531 1017.828125 1929.621094 1162.621094 1848.28125 1260.691406 C 1698.570312 1441.179688 1434.121094 1546.730469 1206.269531 1587.679688 C 1106.121094 1605.691406 1001.359375 1612.089844 948.894531 1597.75 C 920.367188 1589.949219 949.824219 1589.570312 958.902344 1588.5 "/>
</clipPath>
<linearGradient id="linear-pattern-3" gradientUnits="userSpaceOnUse" x1="-0.631279" y1="0" x2="1.063504" y2="0" gradientTransform="matrix(487.944, -528.987, -528.987, -487.944, 1391.26, 1428.38)">
<stop offset="0" stop-color="rgb(100%, 20.391846%, 21.960449%)" stop-opacity="1"/>
<stop offset="0.25" stop-color="rgb(100%, 20.391846%, 21.960449%)" stop-opacity="1"/>
<stop offset="0.375" stop-color="rgb(100%, 20.451355%, 22.024536%)" stop-opacity="1"/>
<stop offset="0.378906" stop-color="rgb(100%, 20.698547%, 22.288513%)" stop-opacity="1"/>
<stop offset="0.382813" stop-color="rgb(100%, 20.88623%, 22.488403%)" stop-opacity="1"/>
<stop offset="0.386719" stop-color="rgb(100%, 21.072388%, 22.688293%)" stop-opacity="1"/>
<stop offset="0.390625" stop-color="rgb(100%, 21.260071%, 22.888184%)" stop-opacity="1"/>
<stop offset="0.394531" stop-color="rgb(100%, 21.446228%, 23.088074%)" stop-opacity="1"/>
<stop offset="0.398438" stop-color="rgb(100%, 21.633911%, 23.287964%)" stop-opacity="1"/>
<stop offset="0.402344" stop-color="rgb(100%, 21.820068%, 23.487854%)" stop-opacity="1"/>
<stop offset="0.40625" stop-color="rgb(100%, 22.007751%, 23.687744%)" stop-opacity="1"/>
<stop offset="0.410156" stop-color="rgb(100%, 22.193909%, 23.887634%)" stop-opacity="1"/>
<stop offset="0.414063" stop-color="rgb(100%, 22.381592%, 24.087524%)" stop-opacity="1"/>
<stop offset="0.417969" stop-color="rgb(100%, 22.567749%, 24.287415%)" stop-opacity="1"/>
<stop offset="0.421875" stop-color="rgb(100%, 22.755432%, 24.487305%)" stop-opacity="1"/>
<stop offset="0.425781" stop-color="rgb(100%, 22.941589%, 24.687195%)" stop-opacity="1"/>
<stop offset="0.429688" stop-color="rgb(100%, 23.129272%, 24.887085%)" stop-opacity="1"/>
<stop offset="0.433594" stop-color="rgb(100%, 23.31543%, 25.086975%)" stop-opacity="1"/>
<stop offset="0.4375" stop-color="rgb(100%, 23.503113%, 25.286865%)" stop-opacity="1"/>
<stop offset="0.441406" stop-color="rgb(100%, 23.68927%, 25.486755%)" stop-opacity="1"/>
<stop offset="0.445312" stop-color="rgb(100%, 23.876953%, 25.686646%)" stop-opacity="1"/>
<stop offset="0.449219" stop-color="rgb(100%, 24.06311%, 25.886536%)" stop-opacity="1"/>
<stop offset="0.453125" stop-color="rgb(100%, 24.250793%, 26.086426%)" stop-opacity="1"/>
<stop offset="0.457031" stop-color="rgb(100%, 24.436951%, 26.286316%)" stop-opacity="1"/>
<stop offset="0.460938" stop-color="rgb(100%, 24.624634%, 26.486206%)" stop-opacity="1"/>
<stop offset="0.464844" stop-color="rgb(100%, 24.810791%, 26.686096%)" stop-opacity="1"/>
<stop offset="0.46875" stop-color="rgb(100%, 24.998474%, 26.885986%)" stop-opacity="1"/>
<stop offset="0.472656" stop-color="rgb(100%, 25.184631%, 27.085876%)" stop-opacity="1"/>
<stop offset="0.476563" stop-color="rgb(100%, 25.372314%, 27.285767%)" stop-opacity="1"/>
<stop offset="0.480469" stop-color="rgb(100%, 25.558472%, 27.485657%)" stop-opacity="1"/>
<stop offset="0.484375" stop-color="rgb(100%, 25.746155%, 27.685547%)" stop-opacity="1"/>
<stop offset="0.488281" stop-color="rgb(100%, 25.932312%, 27.885437%)" stop-opacity="1"/>
<stop offset="0.492188" stop-color="rgb(100%, 26.119995%, 28.085327%)" stop-opacity="1"/>
<stop offset="0.496094" stop-color="rgb(100%, 26.306152%, 28.285217%)" stop-opacity="1"/>
<stop offset="0.5" stop-color="rgb(100%, 26.493835%, 28.485107%)" stop-opacity="1"/>
<stop offset="0.503906" stop-color="rgb(100%, 26.679993%, 28.684998%)" stop-opacity="1"/>
<stop offset="0.507812" stop-color="rgb(100%, 26.867676%, 28.884888%)" stop-opacity="1"/>
<stop offset="0.511719" stop-color="rgb(100%, 27.053833%, 29.084778%)" stop-opacity="1"/>
<stop offset="0.515625" stop-color="rgb(100%, 27.241516%, 29.284668%)" stop-opacity="1"/>
<stop offset="0.519531" stop-color="rgb(100%, 27.427673%, 29.484558%)" stop-opacity="1"/>
<stop offset="0.523438" stop-color="rgb(100%, 27.615356%, 29.685974%)" stop-opacity="1"/>
<stop offset="0.527344" stop-color="rgb(100%, 27.801514%, 29.885864%)" stop-opacity="1"/>
<stop offset="0.53125" stop-color="rgb(100%, 27.989197%, 30.085754%)" stop-opacity="1"/>
<stop offset="0.535156" stop-color="rgb(100%, 28.175354%, 30.285645%)" stop-opacity="1"/>
<stop offset="0.539062" stop-color="rgb(100%, 28.363037%, 30.485535%)" stop-opacity="1"/>
<stop offset="0.542969" stop-color="rgb(100%, 28.549194%, 30.685425%)" stop-opacity="1"/>
<stop offset="0.546875" stop-color="rgb(100%, 28.736877%, 30.885315%)" stop-opacity="1"/>
<stop offset="0.550781" stop-color="rgb(100%, 28.923035%, 31.085205%)" stop-opacity="1"/>
<stop offset="0.554688" stop-color="rgb(100%, 29.110718%, 31.285095%)" stop-opacity="1"/>
<stop offset="0.558594" stop-color="rgb(100%, 29.296875%, 31.484985%)" stop-opacity="1"/>
<stop offset="0.5625" stop-color="rgb(100%, 29.484558%, 31.684875%)" stop-opacity="1"/>
<stop offset="0.566406" stop-color="rgb(100%, 29.670715%, 31.884766%)" stop-opacity="1"/>
<stop offset="0.570313" stop-color="rgb(100%, 29.858398%, 32.084656%)" stop-opacity="1"/>
<stop offset="0.574219" stop-color="rgb(100%, 30.044556%, 32.284546%)" stop-opacity="1"/>
<stop offset="0.578125" stop-color="rgb(100%, 30.232239%, 32.484436%)" stop-opacity="1"/>
<stop offset="0.582031" stop-color="rgb(100%, 30.418396%, 32.684326%)" stop-opacity="1"/>
<stop offset="0.585938" stop-color="rgb(100%, 30.606079%, 32.884216%)" stop-opacity="1"/>
<stop offset="0.589844" stop-color="rgb(100%, 30.792236%, 33.084106%)" stop-opacity="1"/>
<stop offset="0.59375" stop-color="rgb(100%, 30.979919%, 33.283997%)" stop-opacity="1"/>
<stop offset="0.597656" stop-color="rgb(100%, 31.166077%, 33.483887%)" stop-opacity="1"/>
<stop offset="0.601563" stop-color="rgb(100%, 31.35376%, 33.683777%)" stop-opacity="1"/>
<stop offset="0.605469" stop-color="rgb(100%, 31.539917%, 33.883667%)" stop-opacity="1"/>
<stop offset="0.609375" stop-color="rgb(100%, 31.7276%, 34.083557%)" stop-opacity="1"/>
<stop offset="0.613281" stop-color="rgb(100%, 31.913757%, 34.283447%)" stop-opacity="1"/>
<stop offset="0.617188" stop-color="rgb(100%, 32.10144%, 34.483337%)" stop-opacity="1"/>
<stop offset="0.621094" stop-color="rgb(100%, 32.287598%, 34.683228%)" stop-opacity="1"/>
<stop offset="0.625" stop-color="rgb(100%, 32.475281%, 34.883118%)" stop-opacity="1"/>
<stop offset="0.628906" stop-color="rgb(100%, 32.661438%, 35.083008%)" stop-opacity="1"/>
<stop offset="0.632812" stop-color="rgb(100%, 32.849121%, 35.282898%)" stop-opacity="1"/>
<stop offset="0.636719" stop-color="rgb(100%, 33.035278%, 35.482788%)" stop-opacity="1"/>
<stop offset="0.640625" stop-color="rgb(100%, 33.222961%, 35.682678%)" stop-opacity="1"/>
<stop offset="0.644531" stop-color="rgb(100%, 33.409119%, 35.882568%)" stop-opacity="1"/>
<stop offset="0.648438" stop-color="rgb(100%, 33.596802%, 36.082458%)" stop-opacity="1"/>
<stop offset="0.652344" stop-color="rgb(100%, 33.782959%, 36.282349%)" stop-opacity="1"/>
<stop offset="0.65625" stop-color="rgb(100%, 33.970642%, 36.482239%)" stop-opacity="1"/>
<stop offset="0.660156" stop-color="rgb(100%, 34.156799%, 36.682129%)" stop-opacity="1"/>
<stop offset="0.664063" stop-color="rgb(100%, 34.344482%, 36.882019%)" stop-opacity="1"/>
<stop offset="0.667969" stop-color="rgb(100%, 34.53064%, 37.081909%)" stop-opacity="1"/>
<stop offset="0.671875" stop-color="rgb(100%, 34.718323%, 37.281799%)" stop-opacity="1"/>
<stop offset="0.675781" stop-color="rgb(100%, 34.90448%, 37.481689%)" stop-opacity="1"/>
<stop offset="0.679688" stop-color="rgb(100%, 35.092163%, 37.68158%)" stop-opacity="1"/>
<stop offset="0.683594" stop-color="rgb(100%, 35.27832%, 37.88147%)" stop-opacity="1"/>
<stop offset="0.6875" stop-color="rgb(100%, 35.466003%, 38.08136%)" stop-opacity="1"/>
<stop offset="0.691406" stop-color="rgb(100%, 35.652161%, 38.28125%)" stop-opacity="1"/>
<stop offset="0.695313" stop-color="rgb(100%, 35.839844%, 38.48114%)" stop-opacity="1"/>
<stop offset="0.699219" stop-color="rgb(100%, 36.026001%, 38.68103%)" stop-opacity="1"/>
<stop offset="0.703125" stop-color="rgb(100%, 36.213684%, 38.88092%)" stop-opacity="1"/>
<stop offset="0.707031" stop-color="rgb(100%, 36.399841%, 39.080811%)" stop-opacity="1"/>
<stop offset="0.710938" stop-color="rgb(100%, 36.587524%, 39.280701%)" stop-opacity="1"/>
<stop offset="0.714844" stop-color="rgb(100%, 36.773682%, 39.480591%)" stop-opacity="1"/>
<stop offset="0.71875" stop-color="rgb(100%, 36.961365%, 39.680481%)" stop-opacity="1"/>
<stop offset="0.722656" stop-color="rgb(100%, 37.147522%, 39.880371%)" stop-opacity="1"/>
<stop offset="0.726563" stop-color="rgb(100%, 37.335205%, 40.080261%)" stop-opacity="1"/>
<stop offset="0.730469" stop-color="rgb(100%, 37.521362%, 40.280151%)" stop-opacity="1"/>
<stop offset="0.734375" stop-color="rgb(100%, 37.709045%, 40.480042%)" stop-opacity="1"/>
<stop offset="0.738281" stop-color="rgb(100%, 37.895203%, 40.679932%)" stop-opacity="1"/>
<stop offset="0.742188" stop-color="rgb(100%, 38.082886%, 40.879822%)" stop-opacity="1"/>
<stop offset="0.746094" stop-color="rgb(100%, 38.269043%, 41.079712%)" stop-opacity="1"/>
<stop offset="0.75" stop-color="rgb(100%, 38.456726%, 41.279602%)" stop-opacity="1"/>
<stop offset="0.753906" stop-color="rgb(100%, 38.642883%, 41.479492%)" stop-opacity="1"/>
<stop offset="0.757812" stop-color="rgb(100%, 38.830566%, 41.679382%)" stop-opacity="1"/>
<stop offset="0.761719" stop-color="rgb(100%, 39.016724%, 41.879272%)" stop-opacity="1"/>
<stop offset="0.765625" stop-color="rgb(100%, 39.204407%, 42.079163%)" stop-opacity="1"/>
<stop offset="0.769531" stop-color="rgb(100%, 39.390564%, 42.279053%)" stop-opacity="1"/>
<stop offset="0.773437" stop-color="rgb(100%, 39.578247%, 42.478943%)" stop-opacity="1"/>
<stop offset="0.777344" stop-color="rgb(100%, 39.764404%, 42.678833%)" stop-opacity="1"/>
<stop offset="0.78125" stop-color="rgb(100%, 39.952087%, 42.878723%)" stop-opacity="1"/>
<stop offset="0.785156" stop-color="rgb(100%, 40.138245%, 43.078613%)" stop-opacity="1"/>
<stop offset="0.789063" stop-color="rgb(100%, 40.325928%, 43.278503%)" stop-opacity="1"/>
<stop offset="0.792969" stop-color="rgb(100%, 40.512085%, 43.478394%)" stop-opacity="1"/>
<stop offset="0.796875" stop-color="rgb(100%, 40.699768%, 43.678284%)" stop-opacity="1"/>
<stop offset="0.800781" stop-color="rgb(100%, 40.885925%, 43.878174%)" stop-opacity="1"/>
<stop offset="0.804688" stop-color="rgb(100%, 41.073608%, 44.078064%)" stop-opacity="1"/>
<stop offset="0.808594" stop-color="rgb(100%, 41.259766%, 44.277954%)" stop-opacity="1"/>
<stop offset="0.8125" stop-color="rgb(100%, 41.447449%, 44.477844%)" stop-opacity="1"/>
<stop offset="0.816406" stop-color="rgb(100%, 41.633606%, 44.677734%)" stop-opacity="1"/>
<stop offset="0.820313" stop-color="rgb(100%, 41.821289%, 44.877625%)" stop-opacity="1"/>
<stop offset="0.824219" stop-color="rgb(100%, 42.007446%, 45.077515%)" stop-opacity="1"/>
<stop offset="0.828125" stop-color="rgb(100%, 42.195129%, 45.277405%)" stop-opacity="1"/>
<stop offset="0.832031" stop-color="rgb(100%, 42.381287%, 45.477295%)" stop-opacity="1"/>
<stop offset="0.835938" stop-color="rgb(100%, 42.56897%, 45.677185%)" stop-opacity="1"/>
<stop offset="0.839844" stop-color="rgb(100%, 42.755127%, 45.877075%)" stop-opacity="1"/>
<stop offset="0.84375" stop-color="rgb(100%, 42.94281%, 46.076965%)" stop-opacity="1"/>
<stop offset="0.847656" stop-color="rgb(100%, 43.128967%, 46.276855%)" stop-opacity="1"/>
<stop offset="0.851562" stop-color="rgb(100%, 43.31665%, 46.476746%)" stop-opacity="1"/>
<stop offset="0.855469" stop-color="rgb(100%, 43.502808%, 46.676636%)" stop-opacity="1"/>
<stop offset="0.859375" stop-color="rgb(100%, 43.690491%, 46.876526%)" stop-opacity="1"/>
<stop offset="0.863281" stop-color="rgb(100%, 43.876648%, 47.076416%)" stop-opacity="1"/>
<stop offset="0.867188" stop-color="rgb(100%, 44.064331%, 47.276306%)" stop-opacity="1"/>
<stop offset="0.871094" stop-color="rgb(100%, 44.250488%, 47.476196%)" stop-opacity="1"/>
<stop offset="0.875" stop-color="rgb(100%, 44.438171%, 47.676086%)" stop-opacity="1"/>
<stop offset="0.878906" stop-color="rgb(100%, 44.624329%, 47.875977%)" stop-opacity="1"/>
<stop offset="0.882813" stop-color="rgb(100%, 44.812012%, 48.075867%)" stop-opacity="1"/>
<stop offset="0.886719" stop-color="rgb(100%, 44.998169%, 48.275757%)" stop-opacity="1"/>
<stop offset="0.890625" stop-color="rgb(100%, 45.185852%, 48.475647%)" stop-opacity="1"/>
<stop offset="0.894531" stop-color="rgb(100%, 45.372009%, 48.675537%)" stop-opacity="1"/>
<stop offset="0.898438" stop-color="rgb(100%, 45.559692%, 48.875427%)" stop-opacity="1"/>
<stop offset="0.902344" stop-color="rgb(100%, 45.74585%, 49.075317%)" stop-opacity="1"/>
<stop offset="0.90625" stop-color="rgb(100%, 45.933533%, 49.276733%)" stop-opacity="1"/>
<stop offset="0.910156" stop-color="rgb(100%, 46.11969%, 49.476624%)" stop-opacity="1"/>
<stop offset="0.914063" stop-color="rgb(100%, 46.307373%, 49.676514%)" stop-opacity="1"/>
<stop offset="0.917969" stop-color="rgb(100%, 46.49353%, 49.876404%)" stop-opacity="1"/>
<stop offset="0.921875" stop-color="rgb(100%, 46.681213%, 50.076294%)" stop-opacity="1"/>
<stop offset="0.925781" stop-color="rgb(100%, 46.867371%, 50.276184%)" stop-opacity="1"/>
<stop offset="0.929688" stop-color="rgb(100%, 47.055054%, 50.476074%)" stop-opacity="1"/>
<stop offset="0.933594" stop-color="rgb(100%, 47.241211%, 50.675964%)" stop-opacity="1"/>
<stop offset="0.9375" stop-color="rgb(100%, 47.428894%, 50.875854%)" stop-opacity="1"/>
<stop offset="0.941406" stop-color="rgb(100%, 47.615051%, 51.075745%)" stop-opacity="1"/>
<stop offset="0.945312" stop-color="rgb(100%, 47.802734%, 51.275635%)" stop-opacity="1"/>
<stop offset="0.949219" stop-color="rgb(100%, 47.988892%, 51.475525%)" stop-opacity="1"/>
<stop offset="0.953125" stop-color="rgb(100%, 48.176575%, 51.675415%)" stop-opacity="1"/>
<stop offset="0.957031" stop-color="rgb(100%, 48.362732%, 51.875305%)" stop-opacity="1"/>
<stop offset="0.960938" stop-color="rgb(100%, 48.550415%, 52.075195%)" stop-opacity="1"/>
<stop offset="0.96875" stop-color="rgb(100%, 48.588562%, 52.114868%)" stop-opacity="1"/>
<stop offset="1" stop-color="rgb(100%, 48.626709%, 52.156067%)" stop-opacity="1"/>
</linearGradient>
</defs>

<path fill-rule="nonzero" fill="rgb(40.380859%, 23.143005%, 4.704285%)" fill-opacity="1" d="M 2356.949219 1786.410156 L 2177.25 2037.390625 L 2168.78125 2241.960938 L 2013.839844 2241.960938 L 2017.75 2038.71875 L 1924.269531 1796.21875 L 2090.921875 1775.359375 L 2117.128906 1916.46875 L 2200.121094 1775.359375 L 2356.960938 1786.410156 Z M 1919.71875 1740.28125 L 1896.078125 1877.328125 C 1889.789062 1875.410156 1883.488281 1873.929688 1877.269531 1873.019531 C 1870.949219 1872.109375 1864.710938 1871.53125 1858.359375 1871.28125 C 1842.199219 1870.648438 1826.839844 1872.179688 1812.078125 1875.839844 C 1797.308594 1879.511719 1784.128906 1885.46875 1772.640625 1893.839844 C 1761.050781 1902.101562 1751.710938 1912.558594 1744.511719 1925.460938 C 1737.429688 1938.238281 1733.488281 1953.378906 1732.800781 1971.101562 C 1732.359375 1982.359375 1733.761719 1992.238281 1737.011719 2000.628906 C 1740.359375 2009.128906 1745.109375 2016.121094 1751.46875 2021.839844 C 1757.71875 2027.550781 1765.371094 2031.871094 1774.191406 2034.78125 C 1783 2037.808594 1792.761719 2039.410156 1803.351562 2039.820312 C 1811.488281 2040.140625 1819.878906 2039.691406 1828.640625 2038.238281 C 1837.398438 2036.800781 1846.070312 2034.898438 1854.660156 2032.328125 C 1863.230469 2029.878906 1871.71875 2026.96875 1879.890625 2023.601562 C 1888.058594 2020.128906 1895.679688 2016.628906 1902.519531 2012.988281 L 1883.5 2165.960938 C 1874.859375 2169.980469 1865.460938 2173.519531 1855.410156 2176.46875 C 1845.46875 2179.441406 1835.101562 2182.050781 1824.519531 2184.089844 C 1814.058594 2186.25 1803.511719 2187.738281 1792.980469 2188.558594 C 1782.449219 2189.488281 1772.511719 2189.769531 1762.921875 2189.398438 C 1735.28125 2188.320312 1709.621094 2182.191406 1686.050781 2171 C 1662.488281 2159.808594 1642.300781 2145.070312 1625.390625 2126.441406 C 1608.46875 2107.921875 1595.359375 2086.308594 1586.160156 2061.621094 C 1576.960938 2037.039062 1572.960938 2010.648438 1574.058594 1982.558594 C 1575.511719 1945.339844 1582.21875 1910.429688 1594.210938 1877.859375 C 1606.078125 1845.28125 1622.921875 1817.019531 1644.511719 1792.96875 C 1666.210938 1769.03125 1692.609375 1750.410156 1723.699219 1737.21875 C 1754.921875 1724.03125 1790.421875 1718.160156 1830.210938 1719.710938 C 1845.261719 1720.300781 1860.589844 1722.121094 1876.320312 1725.191406 C 1891.949219 1728.140625 1906.488281 1733.171875 1919.71875 1740.28125 Z M 1555.179688 1725.089844 L 1552.890625 2171.601562 L 1415.960938 2189.210938 L 1382.570312 1747.308594 Z M 1231.269531 1926.519531 C 1231.269531 1912.351562 1226.921875 1901.308594 1218.328125 1893.390625 C 1209.75 1885.46875 1198.589844 1881.449219 1184.871094 1881.449219 C 1180.300781 1881.449219 1175.5 1881.789062 1170.601562 1882.570312 C 1165.691406 1883.351562 1161.109375 1884.238281 1156.761719 1885.359375 L 1152.859375 1980.839844 C 1155.871094 1981.179688 1158.769531 1981.398438 1161.671875 1981.398438 C 1164.460938 1981.398438 1167.359375 1981.398438 1170.480469 1981.398438 C 1178.289062 1981.398438 1185.871094 1980.171875 1193.128906 1977.5 C 1200.488281 1974.929688 1206.960938 1971.140625 1212.648438 1966.230469 C 1218.21875 1961.320312 1222.800781 1955.628906 1226.148438 1948.941406 C 1229.609375 1942.25 1231.28125 1934.769531 1231.28125 1926.519531 Z M 1376.390625 1915.46875 C 1376.390625 1936.550781 1373.160156 1955.300781 1366.910156 1971.691406 C 1360.558594 1987.980469 1351.851562 2002.261719 1340.921875 2014.410156 C 1329.878906 2026.679688 1316.941406 2036.949219 1302.109375 2045.539062 C 1287.378906 2054.011719 1271.539062 2060.929688 1254.589844 2066.28125 C 1237.738281 2071.640625 1220.230469 2075.539062 1202.160156 2078 C 1184.089844 2080.558594 1166.359375 2081.898438 1148.839844 2082.128906 L 1148.839844 2234.378906 L 996.585938 2234.378906 C 996.585938 2184.519531 996.695312 2134.769531 996.917969 2085.359375 C 997.140625 2035.941406 997.476562 1985.96875 997.925781 1935.660156 C 998.367188 1909.121094 998.480469 1882.570312 998.257812 1855.910156 C 998.035156 1829.359375 998.59375 1802.589844 999.933594 1775.601562 C 1027.820312 1767.230469 1055.699219 1761.101562 1083.589844 1756.96875 C 1111.480469 1752.839844 1140.140625 1750.71875 1169.808594 1750.71875 C 1186.550781 1750.71875 1203.390625 1752.058594 1220.121094 1754.851562 C 1236.96875 1757.53125 1253.03125 1761.878906 1268.308594 1767.679688 C 1283.699219 1773.589844 1297.980469 1780.949219 1311.140625 1789.769531 C 1324.308594 1798.578125 1335.679688 1809.058594 1345.28125 1821.339844 C 1354.871094 1833.5 1362.449219 1847.441406 1368.03125 1862.941406 C 1373.609375 1878.558594 1376.398438 1896.070312 1376.398438 1915.480469 Z M 985.492188 2024.25 C 985.492188 2054.148438 980.363281 2080.25 969.988281 2102.558594 C 959.613281 2124.871094 945.5625 2143.5 927.492188 2158.328125 C 909.53125 2173.050781 888.5625 2184.210938 864.46875 2191.570312 C 840.375 2199.050781 814.492188 2202.730469 786.832031 2202.730469 C 776.234375 2202.730469 764.523438 2201.269531 751.695312 2198.488281 C 738.976562 2195.699219 726.039062 2192.128906 712.988281 2187.890625 C 699.9375 2183.648438 687.335938 2179.078125 675.289062 2174.171875 C 663.128906 2169.261719 652.417969 2164.570312 643.050781 2160.230469 L 657.4375 2025.589844 C 675.953125 2036.75 696.480469 2045.109375 719.011719 2050.910156 C 741.546875 2056.710938 763.742188 2059.609375 785.492188 2059.609375 C 789.730469 2059.609375 794.753906 2059.390625 800.550781 2059.050781 C 806.460938 2058.71875 812.039062 2057.828125 817.390625 2056.148438 C 822.746094 2054.480469 827.210938 2052.019531 831.003906 2048.789062 C 834.683594 2045.558594 836.578125 2040.871094 836.578125 2034.738281 C 836.578125 2030.609375 835.242188 2027.039062 832.5625 2024.140625 C 829.996094 2021.238281 826.652344 2018.789062 822.523438 2016.890625 C 818.285156 2015.109375 813.597656 2013.648438 808.46875 2012.648438 C 803.226562 2011.761719 798.09375 2010.980469 793.078125 2010.53125 C 788.058594 2010.078125 783.371094 2009.859375 779.023438 2009.859375 C 774.675781 2009.859375 771.214844 2009.859375 768.539062 2009.859375 C 749.796875 2009.859375 732.730469 2006.628906 717.453125 2000.160156 C 702.058594 1993.578125 688.894531 1984.429688 677.851562 1972.828125 C 666.921875 1961.121094 658.332031 1947.28125 652.199219 1931.339844 C 646.0625 1915.269531 643.050781 1897.980469 643.050781 1879.238281 C 643.050781 1853.480469 648.289062 1830.5 658.554688 1810.089844 C 668.929688 1789.671875 682.761719 1772.390625 700.050781 1758.109375 C 717.449219 1743.828125 737.304688 1732.898438 759.726562 1725.308594 C 782.148438 1717.621094 805.347656 1713.820312 829.328125 1713.820312 C 840.039062 1713.820312 850.96875 1714.269531 862.347656 1714.941406 C 873.722656 1715.71875 884.992188 1717.058594 896.144531 1719.070312 C 907.410156 1721.078125 918.339844 1723.53125 929.050781 1726.539062 C 939.648438 1729.671875 949.796875 1733.460938 959.390625 1738.03125 L 947.007812 1870.660156 C 932.171875 1865.75 916.664062 1861.511719 900.382812 1858.171875 C 884.207031 1854.710938 868.367188 1853.039062 852.863281 1853.039062 C 850.074219 1853.039062 846.394531 1853.148438 841.929688 1853.261719 C 837.46875 1853.371094 832.785156 1853.699219 827.878906 1854.148438 C 822.96875 1854.710938 818.0625 1855.601562 813.042969 1856.609375 C 808.023438 1857.71875 803.5625 1859.171875 799.546875 1861.070312 C 795.640625 1862.960938 792.519531 1865.421875 790.0625 1868.429688 C 787.722656 1871.441406 786.605469 1875.011719 786.828125 1879.25 C 787.050781 1884.050781 788.835938 1887.839844 792.292969 1890.851562 C 795.640625 1893.75 799.988281 1895.980469 805.34375 1897.648438 C 810.699219 1899.328125 816.5 1900.441406 822.96875 1901.109375 C 829.4375 1901.78125 835.796875 1902.121094 842.042969 1902.230469 C 848.398438 1902.339844 854.3125 1902.339844 859.664062 1902.230469 C 865.132812 1902.121094 869.59375 1902.339844 873.164062 1902.789062 C 890.566406 1903.789062 906.292969 1907.578125 920.234375 1913.828125 C 934.179688 1920.191406 945.890625 1928.550781 955.597656 1939.039062 C 965.300781 1949.519531 972.773438 1961.898438 977.90625 1976.410156 C 982.925781 1990.910156 985.488281 2006.859375 985.488281 2024.261719 L 985.492188 2024.25 "/>
<g clip-path="url(#clip-0)">
<g clip-path="url(#clip-1)">
<g clip-path="url(#clip-2)">
<path fill-rule="nonzero" fill="url(#linear-pattern-0)" d="M 1750.582031 36.964844 L 2518.964844 1419.722656 L 967.101562 2282.074219 L 198.71875 899.316406 Z M 1750.582031 36.964844 "/>
</g>
</g>
</g>
<g clip-path="url(#clip-3)">
<g clip-path="url(#clip-4)">
<path fill-rule="nonzero" fill="url(#linear-pattern-1)" d="M 1735.046875 1499.558594 L 1001.558594 1472.75 L 1029.324219 713.03125 L 1762.8125 739.839844 Z M 1735.046875 1499.558594 "/>
</g>
</g>
<g clip-path="url(#clip-5)">
<g clip-path="url(#clip-6)">
<path fill-rule="nonzero" fill="url(#linear-pattern-2)" d="M 1696.421875 1111.515625 L 1680.980469 621.175781 L 2312.976562 601.273438 L 2328.421875 1091.613281 Z M 1696.421875 1111.515625 "/>
</g>
</g>
<path fill-rule="evenodd" fill="rgb(21.166992%, 60.351562%, 13.330078%)" fill-opacity="1" d="M 2133.03125 639.070312 C 2087.890625 647.359375 2045.289062 675.230469 2008.480469 707.980469 C 1968.050781 743.96875 1963.390625 748.71875 1919.53125 725.75 C 1888.738281 709.621094 1855.710938 694.671875 1826.78125 688.109375 C 1838 707.859375 1918.398438 745.410156 1896.050781 758.949219 C 1869.5 775.03125 1865.25 797.089844 1898.601562 795.910156 C 1931.941406 794.730469 1960.28125 786.421875 1949.761719 830.828125 C 1939.238281 875.238281 1962.738281 909.191406 1973.25 878.949219 C 1983.761719 848.710938 1990.25 832.441406 2005.011719 849.359375 C 2019.769531 866.28125 2040.808594 874.199219 2014.871094 827.578125 C 1996.679688 794.878906 1994.898438 775.691406 2024.289062 742.539062 C 2073.808594 686.699219 2166.46875 619.089844 2233.519531 687.308594 C 2274.679688 729.171875 2248 765.941406 2233.480469 787.480469 C 2228.109375 795.441406 2230.480469 800.578125 2235.601562 803.890625 C 2240.410156 802.519531 2245.648438 799.289062 2250.96875 793.609375 C 2313.589844 726.75 2232.921875 620.710938 2133.03125 639.070312 "/>
<g clip-path="url(#clip-7)">
<g clip-path="url(#clip-8)">
<path fill-rule="nonzero" fill="url(#linear-pattern-3)" d="M 1476.816406 2125.367188 L 566.859375 1286.011719 L 1393.820312 389.492188 L 2303.777344 1228.847656 Z M 1476.816406 2125.367188 "/>
</g>
</g>
<path fill-rule="evenodd" fill="rgb(40.380859%, 23.143005%, 4.704285%)" fill-opacity="1" d="M 2123.621094 617.429688 C 2079.101562 628.640625 2038.410156 659.210938 2003.808594 694.289062 C 1965.800781 732.828125 1954.148438 716.089844 1908.890625 696.019531 C 1839.691406 665.320312 1734.109375 667.261719 1675.539062 726.328125 C 1703.148438 716.71875 1746.269531 703.53125 1783.929688 703.320312 C 1836.308594 703.019531 1865.019531 736.109375 1837.71875 778.691406 C 1821.800781 803.738281 1821.789062 827.859375 1869.171875 826.769531 C 1925.699219 825.441406 1920.839844 845.429688 1924.25 878.140625 C 1927.648438 910.828125 1935.371094 977.109375 1970.148438 930.359375 C 2065.378906 802.398438 2096.078125 1006.660156 2080.25 1074.21875 C 2150.820312 927.058594 2064.761719 857.820312 2038.609375 798.71875 C 2024.171875 766.050781 2036.621094 741.550781 2060.949219 714.820312 C 2091.039062 681.761719 2133.480469 663.648438 2167.511719 662.160156 C 2221.339844 659.800781 2242.488281 699.480469 2212.359375 742.558594 C 2193.269531 765.898438 2223.371094 804.828125 2254.308594 760.179688 C 2303.019531 689.878906 2219.351562 593.308594 2123.609375 617.429688 Z M 1530.839844 932.410156 C 1428.371094 1129.71875 1293.199219 1394.328125 1064.390625 1465.089844 C 919.632812 1509.871094 804.511719 1449.691406 885.503906 1291.03125 C 902.710938 1256.21875 894.445312 1239.25 864.703125 1253.230469 C 611.085938 1372.429688 763.835938 1682.230469 1068.058594 1679.75 C 1491.128906 1676.289062 1828.941406 1434.449219 2000.03125 1215.839844 C 2126.710938 1053.96875 2044.761719 855.328125 1988.628906 942.21875 C 1933.171875 1028.058594 1911.230469 939.921875 1904.269531 873.261719 C 1901.148438 843.320312 1878.488281 847.730469 1854.589844 849.75 C 1799.800781 854.371094 1788.601562 825.121094 1814.910156 781.539062 C 1849.480469 724.289062 1761.019531 695.828125 1674.429688 746.988281 C 1623.359375 777.171875 1580.800781 836.851562 1530.839844 932.410156 Z M 2020.660156 1243.300781 C 1795.199219 1531.371094 1464.25 1715.328125 1095.28125 1718.351562 C 736.945312 1721.269531 590.117188 1350.25 864.476562 1233.140625 C 934.273438 1203.339844 938.652344 1244.320312 907.007812 1306.421875 C 850.855469 1416.589844 917.34375 1469.808594 1021.96875 1445.898438 C 1254.128906 1392.871094 1400.941406 1108.808594 1500.769531 916.78125 C 1578.46875 767.289062 1710.140625 602.410156 1900.199219 671.121094 C 1955.21875 691 1959.21875 689.648438 1987.308594 666.390625 C 2011.199219 646.589844 2057.648438 607 2113.109375 593.03125 C 2220.410156 566 2322.171875 680.28125 2270.660156 776.898438 C 2236.039062 841.828125 2150.851562 782.851562 2194.429688 729.921875 C 2219.371094 699.648438 2193.351562 674.25 2164.570312 674.238281 C 2125.050781 674.238281 2037.128906 740.371094 2052.328125 784.089844 C 2061.628906 810.828125 2090.519531 851.609375 2100.980469 872.011719 C 2173.160156 1012.859375 2099.371094 1142.730469 2020.660156 1243.300781 "/>
<path fill-rule="evenodd" fill="rgb(85.15625%, 7.835388%, 8.616638%)" fill-opacity="1" d="M 1065.679688 2347.851562 C 1065.679688 2352.941406 1063.871094 2357.03125 1060.25 2360.101562 C 1056.648438 2363.191406 1051.71875 2364.71875 1045.46875 2364.71875 L 1026.328125 2364.71875 L 1026.328125 2330.980469 L 1045.46875 2330.980469 C 1051.628906 2330.980469 1056.539062 2332.378906 1060.191406 2335.199219 C 1063.851562 2338 1065.679688 2342.230469 1065.679688 2347.851562 Z M 1217.808594 2346.648438 C 1217.808594 2351.46875 1216.070312 2355.320312 1212.578125 2358.160156 C 1209.121094 2361.03125 1204.429688 2362.460938 1198.539062 2362.460938 L 1174.460938 2362.460938 L 1174.460938 2330.980469 L 1198.398438 2330.980469 C 1204.558594 2330.980469 1209.339844 2332.289062 1212.71875 2334.929688 C 1216.121094 2337.558594 1217.808594 2341.46875 1217.808594 2346.648438 Z M 1237.410156 2409.539062 L 1212.210938 2374.191406 C 1215.5 2373.300781 1218.5 2372.039062 1221.210938 2370.390625 C 1223.921875 2368.738281 1226.25 2366.738281 1228.210938 2364.390625 C 1230.171875 2362.03125 1231.699219 2359.320312 1232.808594 2356.25 C 1233.921875 2353.179688 1234.480469 2349.699219 1234.480469 2345.78125 C 1234.480469 2341.25 1233.679688 2337.140625 1232.078125 2333.441406 C 1230.480469 2329.75 1228.191406 2326.640625 1225.210938 2324.109375 C 1222.230469 2321.570312 1218.589844 2319.621094 1214.269531 2318.238281 C 1209.960938 2316.859375 1205.140625 2316.171875 1199.800781 2316.171875 L 1158.191406 2316.171875 L 1158.191406 2409.539062 L 1174.460938 2409.539062 L 1174.460938 2376.988281 L 1195.070312 2376.988281 L 1218.078125 2409.539062 L 1237.421875 2409.539062 Z M 1382.738281 2316.171875 L 1313.660156 2316.171875 L 1313.660156 2409.539062 L 1383.410156 2409.539062 L 1383.410156 2394.730469 L 1329.929688 2394.730469 L 1329.929688 2369.789062 L 1376.738281 2369.789062 L 1376.738281 2354.988281 L 1329.929688 2354.988281 L 1329.929688 2330.980469 L 1382.738281 2330.980469 Z M 1537.539062 2342.578125 L 1537.539062 2409.539062 L 1553.808594 2409.539062 L 1553.808594 2316.171875 L 1536.339844 2316.171875 L 1507.929688 2360.320312 L 1479.53125 2316.171875 L 1462.050781 2316.171875 L 1462.050781 2409.539062 L 1478.320312 2409.539062 L 1478.320312 2342.851562 L 1507.53125 2386.589844 L 1508.070312 2386.589844 Z M 1637.789062 2316.171875 L 1637.789062 2409.539062 L 1654.058594 2409.539062 L 1654.058594 2316.171875 Z M 1816.601562 2316.171875 L 1800.328125 2316.171875 L 1800.328125 2369.921875 C 1800.328125 2378.550781 1798.21875 2385.039062 1794.019531 2389.398438 C 1789.808594 2393.75 1784.058594 2395.929688 1776.71875 2395.929688 C 1769.300781 2395.929688 1763.5 2393.660156 1759.300781 2389.128906 C 1755.089844 2384.589844 1752.980469 2377.96875 1752.980469 2369.261719 L 1752.980469 2316.171875 L 1736.710938 2316.171875 L 1736.710938 2369.921875 C 1736.710938 2376.679688 1737.648438 2382.609375 1739.511719 2387.730469 C 1741.378906 2392.839844 1744.050781 2397.128906 1747.519531 2400.601562 C 1750.980469 2404.070312 1755.160156 2406.671875 1760.058594 2408.398438 C 1764.941406 2410.140625 1770.410156 2411 1776.460938 2411 C 1782.589844 2411 1788.128906 2410.140625 1793.058594 2408.398438 C 1798 2406.671875 1802.199219 2404.039062 1805.671875 2400.53125 C 1809.140625 2397.019531 1811.828125 2392.640625 1813.738281 2387.390625 C 1815.648438 2382.148438 1816.609375 2376.058594 1816.609375 2369.121094 L 1816.609375 2316.171875 Z M 1973.671875 2342.578125 L 1973.671875 2409.539062 L 1989.941406 2409.539062 L 1989.941406 2316.171875 L 1972.46875 2316.171875 L 1944.058594 2360.320312 L 1915.648438 2316.171875 L 1898.179688 2316.171875 L 1898.179688 2409.539062 L 1914.449219 2409.539062 L 1914.449219 2342.851562 L 1943.660156 2386.589844 L 1944.191406 2386.589844 Z M 1082.351562 2347.511719 C 1082.351562 2342.710938 1081.519531 2338.398438 1079.878906 2334.578125 C 1078.230469 2330.75 1075.878906 2327.460938 1072.808594 2324.710938 C 1069.738281 2321.949219 1066.011719 2319.839844 1061.609375 2318.371094 C 1057.210938 2316.910156 1052.289062 2316.171875 1046.871094 2316.171875 L 1010.058594 2316.171875 L 1010.058594 2409.53125 L 1026.328125 2409.53125 L 1026.328125 2379.519531 L 1044.910156 2379.519531 C 1050.089844 2379.519531 1054.941406 2378.828125 1059.5 2377.460938 C 1064.03125 2376.078125 1067.988281 2374.050781 1071.390625 2371.390625 C 1074.769531 2368.71875 1077.429688 2365.390625 1079.410156 2361.390625 C 1081.371094 2357.378906 1082.351562 2352.761719 1082.351562 2347.511719 "/>
</svg>
